HIERARCHY
ROOT Hips
{
	OFFSET -3.958830 18.904000 13.208200
	CHANNELS 6 Xposition Yposition Zposition Zrotation Yrotation Xrotation 
	JOINT LHipJoint
	{
		OFFSET 0.000000 0.000000 0.000000
		CHANNELS 3 Zrotation Yrotation Xrotation
		JOINT LeftUpLeg
		{
			OFFSET 1.800000 -1.400000 0.085000
			CHANNELS 3 Zrotation Yrotation Xrotation
			JOINT LeftLeg
			{
				OFFSET 2.215000 -6.000000 0.000000
				CHANNELS 3 Zrotation Yrotation Xrotation
				JOINT LeftFoot
				{
					OFFSET 2.500000 -6.900000 0.000000
					CHANNELS 3 Zrotation Yrotation Xrotation
					JOINT LeftToeBase
					{
						OFFSET 0.200000 -0.500000 1.950000
						CHANNELS 3 Zrotation Yrotation Xrotation
						End Site
						{
							OFFSET 0.000000 0.000000 0.000000
						}
					}
				}
			}
		}
	}
	JOINT RHipJoint
	{
		OFFSET 0.000000 0.000000 0.000000
		CHANNELS 3 Zrotation Yrotation Xrotation
		JOINT RightUpLeg
		{
			OFFSET -1.800000 -1.400000 0.085000
			CHANNELS 3 Zrotation Yrotation Xrotation
			JOINT RightLeg
			{
				OFFSET -2.215000 -6.000000 0.000000
				CHANNELS 3 Zrotation Yrotation Xrotation
				JOINT RightFoot
				{
					OFFSET -2.500000 -6.900000 0.000000
					CHANNELS 3 Zrotation Yrotation Xrotation
					JOINT RightToeBase
					{
						OFFSET -0.200000 -0.500000 1.950000
						CHANNELS 3 Zrotation Yrotation Xrotation
						End Site
						{
							OFFSET 0.000000 0.000000 0.000000
						}
					}
				}
			}
		}
	}
	JOINT LowerBack
	{
		OFFSET 0.000000 0.000000 0.000000
		CHANNELS 3 Zrotation Yrotation Xrotation
		JOINT Spine
		{
			OFFSET -0.087000 1.940000 -0.288900
			CHANNELS 3 Zrotation Yrotation Xrotation
			JOINT Spine1
			{
				OFFSET 0.000000 1.950000 0.060000
				CHANNELS 3 Zrotation Yrotation Xrotation
				JOINT Neck
				{
					OFFSET 0.000000 0.000000 0.000000
					CHANNELS 3 Zrotation Yrotation Xrotation
					JOINT Neck1
					{
						OFFSET 0.000000 1.600000 0.340000
						CHANNELS 3 Zrotation Yrotation Xrotation
						JOINT Head
						{
							OFFSET 0.000000 1.667000 -0.240000
							CHANNELS 3 Zrotation Yrotation Xrotation
							End Site
							{
								OFFSET 0.000000 0.000000 0.000000
							}
						}
					}
				}
				JOINT LeftShoulder
				{
					OFFSET 0.000000 0.000000 0.000000
					CHANNELS 3 Zrotation Yrotation Xrotation
					JOINT LeftArm
					{
						OFFSET 2.700000 1.550000 -0.730000
						CHANNELS 3 Zrotation Yrotation Xrotation
						JOINT LeftForeArm
						{
							OFFSET 5.450000 0.000000 0.000000
							CHANNELS 3 Zrotation Yrotation Xrotation
							JOINT LeftHand
							{
								OFFSET 3.450000 0.000000 0.000000
								CHANNELS 3 Zrotation Yrotation Xrotation
								JOINT LeftHandIndex1
								{
									OFFSET 0.750000 0.000000 0.000000
									CHANNELS 3 Zrotation Yrotation Xrotation
									End Site
									{
										OFFSET 0.000000 0.000000 0.000000
									}
								}
							}
						}
					}
				}
				JOINT RightShoulder
				{
					OFFSET 0.000000 0.000000 0.000000
					CHANNELS 3 Zrotation Yrotation Xrotation
					JOINT RightArm
					{
						OFFSET -2.700000 1.550000 -0.730000
						CHANNELS 3 Zrotation Yrotation Xrotation
						JOINT RightForeArm
						{
							OFFSET -5.450000 0.000000 0.000000
							CHANNELS 3 Zrotation Yrotation Xrotation
							JOINT RightHand
							{
								OFFSET -3.450000 0.000000 0.000000
								CHANNELS 3 Zrotation Yrotation Xrotation
								JOINT RightHandIndex1
								{
									OFFSET -0.750000 0.000000 0.000000
									CHANNELS 3 Zrotation Yrotation Xrotation
									End Site
									{
										OFFSET 0.000000 0.000000 0.000000
									}
								}
							}
						}
					}
				}
			}
		}
	}
}
MOTION
Frames: 9
Frame Time: 0.016667
2.370810 17.353540 -0.900670 177.914122 -75.453067 -173.560293 -15.348829 11.290803 4.243652 -4.406032 -2.859069 -47.030768 -2.006935 5.458818 21.543919 -0.510596 3.282600 3.461879 0.742130 0.413150 0.605650 18.113900 -11.109426 3.497048 -4.015428 10.375228 -16.189370 16.261315 -9.536407 33.951504 -0.929334 -6.322781 2.247770 0.177220 0.133050 0.443870 -5.634010 1.784076 -8.470246 22.171776 10.312038 29.297363 -7.514369 16.264621 9.809843 3.314512 -6.364308 -10.584881 -13.393644 6.363480 42.184761 -9.750970 5.685940 -10.611170 -22.694110 -10.182315 5.952479 -23.798865 4.269208 -4.551764 8.909188 -23.339497 -2.447017 -3.432578 3.085531 0.602680 0.100240 0.257360 0.408570 13.748497 22.229914 4.486858 25.018530 27.944678 -8.679688 -72.069396 67.947864 -45.809103 1.292493 0.085859 -0.033450 0.050730 -0.425700 -0.090440 
2.328830 17.233740 -0.877060 176.411304 -78.186311 -169.976905 -15.229559 10.975179 4.546990 -5.761104 -3.937325 -48.415737 -3.011668 4.029901 13.519153 -0.686764 2.399520 3.833780 0.680550 0.346300 0.505770 18.258590 -11.467945 3.084690 -2.136907 5.924537 -12.766433 12.746731 -7.771919 26.044778 -0.634776 -5.242876 2.641250 0.186690 0.279240 0.476640 -5.770527 2.180769 -8.295412 21.768404 11.380195 23.168083 -5.467234 15.689358 10.578940 2.648901 -6.259677 -9.807100 -12.798159 6.800075 41.460992 -7.866100 5.866530 -6.554270 -20.514825 -8.882477 5.552493 -24.790156 2.577389 -4.157837 9.119245 -24.319561 -2.682584 -3.603600 3.092412 0.526190 0.225040 0.144840 0.414500 13.206376 20.165258 3.990645 25.473225 26.984820 -7.966137 -58.711495 68.508378 -36.359416 1.309512 -0.488028 -0.071940 0.061750 -0.346570 -0.075110 
2.313040 17.137300 -0.863540 171.494251 -79.293284 -163.986362 -15.054204 10.795557 4.761363 -7.034686 -4.666812 -50.203806 -3.384520 3.757921 11.391599 -0.770270 2.285546 3.907402 0.655690 0.308770 0.485420 18.472332 -11.588838 2.862150 -1.427712 2.949751 -9.985580 9.874982 -6.572000 19.530527 -0.477829 -4.607116 2.890997 0.208630 0.359410 0.491160 -5.467004 2.320656 -8.145897 19.338610 12.673330 19.822371 -3.866609 15.791989 10.897700 2.356126 -5.642466 -8.995257 -11.055866 6.734177 39.938927 -8.173190 6.786010 -4.940370 -19.202368 -7.914253 4.960843 -24.289500 1.259052 -4.106790 9.949467 -26.943693 -3.052748 -3.698253 3.109000 0.486580 0.311220 0.074380 0.417660 12.710522 18.609007 3.479904 25.195457 26.824339 -7.014641 -45.427579 66.566072 -26.938941 1.417438 -1.032276 -0.118190 0.073100 -0.317050 -0.089050 
2.310490 17.055700 -0.845960 169.130570 -78.904525 -160.173882 -14.976747 10.577834 4.976593 -7.698523 -5.280772 -54.005689 -2.041992 4.297220 15.839447 -0.680043 2.710224 3.732749 0.675590 0.344090 0.462750 18.617848 -11.547681 2.753912 -0.782203 1.499860 -8.859003 7.567787 -5.691972 15.124995 -0.384592 -4.293431 3.004675 0.243000 0.403040 0.546930 -5.228636 2.539189 -8.055052 17.152597 13.897002 17.296911 -3.092844 16.244574 10.372605 2.132836 -5.518834 -8.344443 -10.055245 6.841938 37.062539 -8.373520 7.685990 -2.516790 -18.043817 -6.596971 4.246743 -24.632469 -0.543875 -3.841298 12.574022 -28.045396 -3.566575 -3.779415 3.244319 0.374400 0.394410 0.022600 0.448990 12.196124 17.401088 3.175136 25.765236 27.470848 -5.288516 -35.156911 63.792512 -19.824441 1.519619 -1.463197 -0.080250 -0.007630 -0.341590 -0.058520 
2.327830 17.032380 -0.826500 167.330553 -78.593016 -158.213154 -14.965825 10.413237 5.188623 -7.988695 -5.794307 -57.476698 0.559819 5.207234 24.689447 -0.475454 3.796178 3.331347 0.731310 0.436410 0.488720 18.675842 -11.481002 2.723224 -0.625281 0.812023 -7.682479 6.447899 -5.233209 12.233245 -0.393541 -4.155448 3.089832 0.281750 0.401130 0.551710 -5.161659 2.683738 -8.109469 16.609056 14.021855 17.269464 -3.831206 16.511931 9.831037 2.240820 -5.564504 -8.099161 -9.975278 6.481057 36.559318 -8.875410 7.556430 -2.725000 -18.028883 -6.177737 3.689445 -25.043119 -2.286433 -3.992171 16.203281 -29.858075 -4.509544 -3.756134 3.250004 0.334930 0.401890 0.055040 0.510040 11.863202 17.175285 3.107451 26.165105 28.349927 -4.079908 -26.035194 59.478205 -13.612056 1.634963 -1.696591 -0.048060 -0.001770 -0.420980 -0.018450 
2.327830 17.054580 -0.797480 167.455853 -79.345476 -159.360096 -15.014868 10.302359 5.325820 -7.852351 -6.160931 -59.069900 3.928025 5.788451 34.775663 -0.251060 5.374199 2.746728 0.742840 0.469480 0.481600 18.650072 -11.491102 2.717344 -0.222197 0.405132 -6.282218 5.865794 -5.208963 11.728922 -0.436536 -4.191542 3.108534 0.290870 0.380580 0.527800 -5.369771 2.825844 -8.257926 18.067348 13.062592 18.733765 -5.391387 16.306467 9.305601 2.409896 -5.659227 -8.148408 -10.173655 5.932595 37.405328 -9.040250 6.658440 -3.962980 -18.789541 -6.131653 3.219988 -24.909066 -2.674094 -4.718203 20.322204 -33.800455 -6.116905 -3.705807 3.208324 0.359130 0.373170 0.082220 0.522830 12.061556 17.166775 3.472756 27.324206 28.565338 -3.640497 -20.948156 54.375559 -10.080180 1.703888 -1.746047 -0.046909 0.030190 -0.431370 -0.011450 
2.307370 17.091280 -0.781970 163.743045 -80.149268 -156.115291 -15.013967 10.292508 5.495091 -7.352055 -6.917997 -59.255379 5.354867 6.658342 43.597231 0.007932 7.000259 2.174354 0.742810 0.459650 0.501430 18.674208 -11.387878 2.616330 -0.644784 0.428556 -6.131824 5.633428 -5.292039 12.688875 -0.439657 -4.209550 3.105497 0.284480 0.349330 0.498910 -5.122247 2.696297 -8.331403 16.678202 12.787276 18.679504 -5.528685 15.928830 9.254209 2.687947 -4.523952 -8.275702 -8.239668 5.235019 38.675769 -8.903480 6.501360 -3.709710 -19.435511 -6.608520 3.275386 -26.432605 -2.548004 -5.984482 25.991612 -39.242972 -9.057003 -3.639527 3.166322 0.387440 0.348800 0.086410 0.510910 12.325562 16.693853 3.676527 29.850444 28.507200 -2.874184 -17.372732 49.756646 -7.876840 1.769797 -1.762808 -0.064110 0.025710 -0.442580 -0.033850 
2.269130 17.160760 -0.748040 156.806028 -82.757382 -150.334032 -14.935584 10.390866 5.583370 -6.748597 -7.915384 -56.952922 6.034618 7.194378 50.567623 0.275919 8.246942 1.748083 0.756760 0.474080 0.536530 18.750599 -11.282306 2.563252 -1.260341 0.567621 -5.661846 6.481829 -5.697905 14.354840 -0.481775 -4.351981 3.052173 0.280700 0.289100 0.480540 -4.925510 2.458571 -8.375859 16.552888 11.326124 19.103657 -5.607757 14.549600 9.235603 3.025847 -3.747811 -8.087021 -6.982860 4.928292 40.415477 -9.463200 6.832280 -3.879310 -21.028456 -6.748233 3.181037 -28.980127 -3.054136 -7.277511 32.236167 -45.422410 -13.263462 -3.559892 3.098674 0.404160 0.314570 0.111570 0.493010 13.322675 15.813656 3.569972 32.006505 27.882987 -2.486352 -14.881900 46.364817 -6.490136 1.844085 -1.751785 -0.052830 0.004250 -0.460540 -0.054540 
2.243180 17.270470 -0.707580 151.836503 -85.804256 -147.017228 -14.871451 10.672233 5.475766 -5.025943 -8.092023 -52.602451 5.830665 7.770573 55.146676 0.434769 9.129319 1.476339 0.735740 0.425640 0.561750 18.768213 -11.271909 2.583983 -0.979169 0.830651 -5.789964 7.124614 -6.253956 17.458281 -0.540967 -4.483112 3.013170 0.249280 0.256160 0.421910 -4.958939 2.078867 -8.413967 18.378878 8.748915 20.557191 -6.585154 12.679583 9.192009 3.288924 -3.971839 -8.674348 -7.957753 5.091790 43.286095 -9.007650 6.188820 -5.274100 -22.541843 -7.905991 3.527803 -32.175276 -3.461293 -8.734245 40.205963 -49.119273 -18.653580 -3.464121 2.850544 0.508440 0.245300 0.141580 0.463060 14.368819 16.484553 4.192847 33.814010 26.414547 -3.527091 -14.238665 43.700924 -6.124891 1.884161 -1.636197 -0.103650 0.072910 -0.439860 -0.094260 
